<mxfile host="drawio-plugin" modified="2022-02-18T17:16:20.800Z" agent="5.0 (Macintosh; Intel Mac OS X 12_1_0) AppleWebKit/537.36 (KHTML, like Gecko) Chrome/89.0.4389.114 Safari/537.36" etag="ebD9ZtCLK49XtxGoVEGR" version="15.5.4" type="embed"><diagram id="UyKA93TA88LN0iLQrlrQ" name="Page-1"><mxGraphModel dx="504" dy="703" grid="1" gridSize="10" guides="1" tooltips="1" connect="1" arrows="1" fold="1" page="0" pageScale="1" pageWidth="827" pageHeight="1169" math="0" shadow="0"><root><mxCell id="0"/><mxCell id="1" parent="0"/><mxCell id="ddYMeWlsdtzNe6fO3Iin-3" style="edgeStyle=orthogonalEdgeStyle;rounded=0;orthogonalLoop=1;jettySize=auto;html=1;exitX=0.5;exitY=1;exitDx=0;exitDy=0;entryX=0.5;entryY=0;entryDx=0;entryDy=0;" parent="1" source="ddYMeWlsdtzNe6fO3Iin-1" target="ddYMeWlsdtzNe6fO3Iin-2" edge="1"><mxGeometry relative="1" as="geometry"/></mxCell><mxCell id="ddYMeWlsdtzNe6fO3Iin-1" value="Start&lt;br&gt;" style="ellipse;whiteSpace=wrap;html=1;" parent="1" vertex="1"><mxGeometry x="353" width="120" height="80" as="geometry"/></mxCell><mxCell id="ddYMeWlsdtzNe6fO3Iin-5" style="edgeStyle=orthogonalEdgeStyle;rounded=0;orthogonalLoop=1;jettySize=auto;html=1;exitX=0.5;exitY=1;exitDx=0;exitDy=0;entryX=0.5;entryY=0;entryDx=0;entryDy=0;" parent="1" source="ddYMeWlsdtzNe6fO3Iin-2" target="ddYMeWlsdtzNe6fO3Iin-4" edge="1"><mxGeometry relative="1" as="geometry"/></mxCell><mxCell id="ddYMeWlsdtzNe6fO3Iin-2" value="User selects loop type" style="shape=parallelogram;perimeter=parallelogramPerimeter;whiteSpace=wrap;html=1;fixedSize=1;" parent="1" vertex="1"><mxGeometry x="353" y="110" width="120" height="60" as="geometry"/></mxCell><mxCell id="ddYMeWlsdtzNe6fO3Iin-8" style="edgeStyle=orthogonalEdgeStyle;rounded=0;orthogonalLoop=1;jettySize=auto;html=1;exitX=0;exitY=0.5;exitDx=0;exitDy=0;entryX=0.5;entryY=0;entryDx=0;entryDy=0;" parent="1" source="ddYMeWlsdtzNe6fO3Iin-4" target="ddYMeWlsdtzNe6fO3Iin-6" edge="1"><mxGeometry relative="1" as="geometry"/></mxCell><mxCell id="ddYMeWlsdtzNe6fO3Iin-10" style="edgeStyle=orthogonalEdgeStyle;rounded=0;orthogonalLoop=1;jettySize=auto;html=1;exitX=1;exitY=0.5;exitDx=0;exitDy=0;entryX=0.5;entryY=0;entryDx=0;entryDy=0;" parent="1" source="ddYMeWlsdtzNe6fO3Iin-4" target="ddYMeWlsdtzNe6fO3Iin-7" edge="1"><mxGeometry relative="1" as="geometry"/></mxCell><mxCell id="ddYMeWlsdtzNe6fO3Iin-4" value="Is selected loop type a while loop" style="rhombus;whiteSpace=wrap;html=1;" parent="1" vertex="1"><mxGeometry x="363" y="210" width="100" height="100" as="geometry"/></mxCell><mxCell id="ddYMeWlsdtzNe6fO3Iin-13" style="edgeStyle=orthogonalEdgeStyle;rounded=0;orthogonalLoop=1;jettySize=auto;html=1;exitX=0.5;exitY=1;exitDx=0;exitDy=0;entryX=0.5;entryY=0;entryDx=0;entryDy=0;" parent="1" source="ddYMeWlsdtzNe6fO3Iin-6" edge="1"><mxGeometry relative="1" as="geometry"><mxPoint x="413" y="390" as="targetPoint"/></mxGeometry></mxCell><mxCell id="ddYMeWlsdtzNe6fO3Iin-6" value="list = Use while loop to collect strings" style="shape=process;whiteSpace=wrap;html=1;backgroundOutline=1;" parent="1" vertex="1"><mxGeometry x="213" y="290" width="120" height="60" as="geometry"/></mxCell><mxCell id="ddYMeWlsdtzNe6fO3Iin-15" style="edgeStyle=orthogonalEdgeStyle;rounded=0;orthogonalLoop=1;jettySize=auto;html=1;exitX=0.5;exitY=1;exitDx=0;exitDy=0;entryX=0.5;entryY=0;entryDx=0;entryDy=0;" parent="1" source="ddYMeWlsdtzNe6fO3Iin-7" edge="1"><mxGeometry relative="1" as="geometry"><mxPoint x="413" y="390" as="targetPoint"/></mxGeometry></mxCell><mxCell id="ddYMeWlsdtzNe6fO3Iin-7" value="list = Use for loop to collect strings" style="shape=process;whiteSpace=wrap;html=1;backgroundOutline=1;" parent="1" vertex="1"><mxGeometry x="503" y="290" width="120" height="60" as="geometry"/></mxCell><mxCell id="ddYMeWlsdtzNe6fO3Iin-9" value="Yes" style="text;html=1;strokeColor=none;fillColor=none;align=center;verticalAlign=middle;whiteSpace=wrap;rounded=0;" parent="1" vertex="1"><mxGeometry x="293" y="220" width="60" height="30" as="geometry"/></mxCell><mxCell id="ddYMeWlsdtzNe6fO3Iin-11" value="No" style="text;html=1;strokeColor=none;fillColor=none;align=center;verticalAlign=middle;whiteSpace=wrap;rounded=0;" parent="1" vertex="1"><mxGeometry x="473" y="220" width="60" height="30" as="geometry"/></mxCell><mxCell id="ddYMeWlsdtzNe6fO3Iin-20" style="edgeStyle=orthogonalEdgeStyle;rounded=0;orthogonalLoop=1;jettySize=auto;html=1;exitX=0.5;exitY=1;exitDx=0;exitDy=0;entryX=0.5;entryY=0;entryDx=0;entryDy=0;" parent="1" source="ddYMeWlsdtzNe6fO3Iin-18" target="ddYMeWlsdtzNe6fO3Iin-19" edge="1"><mxGeometry relative="1" as="geometry"/></mxCell><mxCell id="ddYMeWlsdtzNe6fO3Iin-18" value="quantityOfNaturalNumbers = amount of positive integers in list" style="rounded=0;whiteSpace=wrap;html=1;" parent="1" vertex="1"><mxGeometry x="313" y="390" width="200" height="90" as="geometry"/></mxCell><mxCell id="ddYMeWlsdtzNe6fO3Iin-25" style="edgeStyle=orthogonalEdgeStyle;rounded=0;orthogonalLoop=1;jettySize=auto;html=1;exitX=0.5;exitY=1;exitDx=0;exitDy=0;entryX=0.5;entryY=0;entryDx=0;entryDy=0;" parent="1" source="ddYMeWlsdtzNe6fO3Iin-19" target="ddYMeWlsdtzNe6fO3Iin-24" edge="1"><mxGeometry relative="1" as="geometry"/></mxCell><mxCell id="ddYMeWlsdtzNe6fO3Iin-19" value="Output quantityOfNaturalNumbers" style="shape=parallelogram;perimeter=parallelogramPerimeter;whiteSpace=wrap;html=1;fixedSize=1;" parent="1" vertex="1"><mxGeometry x="313" y="510" width="200" height="80" as="geometry"/></mxCell><mxCell id="ddYMeWlsdtzNe6fO3Iin-28" style="edgeStyle=orthogonalEdgeStyle;rounded=0;orthogonalLoop=1;jettySize=auto;html=1;exitX=0.5;exitY=1;exitDx=0;exitDy=0;entryX=0.5;entryY=0;entryDx=0;entryDy=0;" parent="1" source="ddYMeWlsdtzNe6fO3Iin-22" target="ddYMeWlsdtzNe6fO3Iin-27" edge="1"><mxGeometry relative="1" as="geometry"/></mxCell><mxCell id="ddYMeWlsdtzNe6fO3Iin-22" value="Output quantityOfNonNaturalNumbers" style="shape=parallelogram;perimeter=parallelogramPerimeter;whiteSpace=wrap;html=1;fixedSize=1;" parent="1" vertex="1"><mxGeometry x="313" y="720" width="200" height="80" as="geometry"/></mxCell><mxCell id="ddYMeWlsdtzNe6fO3Iin-26" style="edgeStyle=orthogonalEdgeStyle;rounded=0;orthogonalLoop=1;jettySize=auto;html=1;exitX=0.5;exitY=1;exitDx=0;exitDy=0;entryX=0.5;entryY=0;entryDx=0;entryDy=0;" parent="1" source="ddYMeWlsdtzNe6fO3Iin-24" target="ddYMeWlsdtzNe6fO3Iin-22" edge="1"><mxGeometry relative="1" as="geometry"/></mxCell><mxCell id="ddYMeWlsdtzNe6fO3Iin-24" value="quantityOfNonNaturalNumbers = (length list)" style="rounded=0;whiteSpace=wrap;html=1;" parent="1" vertex="1"><mxGeometry x="313" y="610" width="200" height="90" as="geometry"/></mxCell><mxCell id="ddYMeWlsdtzNe6fO3Iin-32" style="edgeStyle=orthogonalEdgeStyle;rounded=0;orthogonalLoop=1;jettySize=auto;html=1;exitX=0;exitY=0.5;exitDx=0;exitDy=0;entryX=0.5;entryY=0;entryDx=0;entryDy=0;" parent="1" source="ddYMeWlsdtzNe6fO3Iin-27" target="ddYMeWlsdtzNe6fO3Iin-30" edge="1"><mxGeometry relative="1" as="geometry"/></mxCell><mxCell id="ddYMeWlsdtzNe6fO3Iin-35" style="edgeStyle=orthogonalEdgeStyle;rounded=0;orthogonalLoop=1;jettySize=auto;html=1;exitX=1;exitY=0.5;exitDx=0;exitDy=0;entryX=0.5;entryY=0;entryDx=0;entryDy=0;" parent="1" source="ddYMeWlsdtzNe6fO3Iin-27" target="ddYMeWlsdtzNe6fO3Iin-34" edge="1"><mxGeometry relative="1" as="geometry"/></mxCell><mxCell id="ddYMeWlsdtzNe6fO3Iin-27" value="Is selected loop type a while loop" style="rhombus;whiteSpace=wrap;html=1;" parent="1" vertex="1"><mxGeometry x="354" y="820" width="109" height="100" as="geometry"/></mxCell><mxCell id="ddYMeWlsdtzNe6fO3Iin-33" style="edgeStyle=orthogonalEdgeStyle;rounded=0;orthogonalLoop=1;jettySize=auto;html=1;exitX=0.5;exitY=1;exitDx=0;exitDy=0;entryX=0.5;entryY=0;entryDx=0;entryDy=0;" parent="1" source="ddYMeWlsdtzNe6fO3Iin-30" target="ddYMeWlsdtzNe6fO3Iin-31" edge="1"><mxGeometry relative="1" as="geometry"/></mxCell><mxCell id="ddYMeWlsdtzNe6fO3Iin-30" value="total = total of all natural numbers" style="rounded=0;whiteSpace=wrap;html=1;" parent="1" vertex="1"><mxGeometry x="204" y="900" width="120" height="60" as="geometry"/></mxCell><mxCell id="ddYMeWlsdtzNe6fO3Iin-39" style="edgeStyle=orthogonalEdgeStyle;rounded=0;orthogonalLoop=1;jettySize=auto;html=1;exitX=0.5;exitY=1;exitDx=0;exitDy=0;entryX=0.5;entryY=0;entryDx=0;entryDy=0;" parent="1" source="ddYMeWlsdtzNe6fO3Iin-31" target="ddYMeWlsdtzNe6fO3Iin-38" edge="1"><mxGeometry relative="1" as="geometry"/></mxCell><mxCell id="ddYMeWlsdtzNe6fO3Iin-31" value="output total" style="shape=parallelogram;perimeter=parallelogramPerimeter;whiteSpace=wrap;html=1;fixedSize=1;" parent="1" vertex="1"><mxGeometry x="204" y="980" width="120" height="60" as="geometry"/></mxCell><mxCell id="ddYMeWlsdtzNe6fO3Iin-37" style="edgeStyle=orthogonalEdgeStyle;rounded=0;orthogonalLoop=1;jettySize=auto;html=1;exitX=0.5;exitY=1;exitDx=0;exitDy=0;entryX=0.5;entryY=0;entryDx=0;entryDy=0;" parent="1" source="ddYMeWlsdtzNe6fO3Iin-34" target="ddYMeWlsdtzNe6fO3Iin-36" edge="1"><mxGeometry relative="1" as="geometry"/></mxCell><mxCell id="ddYMeWlsdtzNe6fO3Iin-34" value="difference = largest natural number - smallest natural number" style="rounded=0;whiteSpace=wrap;html=1;" parent="1" vertex="1"><mxGeometry x="503" y="900" width="120" height="60" as="geometry"/></mxCell><mxCell id="ddYMeWlsdtzNe6fO3Iin-40" style="edgeStyle=orthogonalEdgeStyle;rounded=0;orthogonalLoop=1;jettySize=auto;html=1;exitX=0.5;exitY=1;exitDx=0;exitDy=0;entryX=0.5;entryY=0;entryDx=0;entryDy=0;" parent="1" source="ddYMeWlsdtzNe6fO3Iin-36" target="ddYMeWlsdtzNe6fO3Iin-38" edge="1"><mxGeometry relative="1" as="geometry"/></mxCell><mxCell id="ddYMeWlsdtzNe6fO3Iin-36" value="output difference" style="shape=parallelogram;perimeter=parallelogramPerimeter;whiteSpace=wrap;html=1;fixedSize=1;" parent="1" vertex="1"><mxGeometry x="503" y="980" width="120" height="60" as="geometry"/></mxCell><mxCell id="ddYMeWlsdtzNe6fO3Iin-183" style="edgeStyle=orthogonalEdgeStyle;rounded=0;orthogonalLoop=1;jettySize=auto;html=1;exitX=0.5;exitY=1;exitDx=0;exitDy=0;entryX=0.5;entryY=0;entryDx=0;entryDy=0;" parent="1" source="ddYMeWlsdtzNe6fO3Iin-38" target="ddYMeWlsdtzNe6fO3Iin-182" edge="1"><mxGeometry relative="1" as="geometry"/></mxCell><mxCell id="ddYMeWlsdtzNe6fO3Iin-38" value="User selects loop type or stop." style="shape=parallelogram;perimeter=parallelogramPerimeter;whiteSpace=wrap;html=1;fixedSize=1;" parent="1" vertex="1"><mxGeometry x="348.5" y="1080" width="120" height="60" as="geometry"/></mxCell><mxCell id="ddYMeWlsdtzNe6fO3Iin-185" style="edgeStyle=orthogonalEdgeStyle;rounded=0;orthogonalLoop=1;jettySize=auto;html=1;exitX=0.5;exitY=1;exitDx=0;exitDy=0;entryX=0.5;entryY=0;entryDx=0;entryDy=0;" parent="1" source="ddYMeWlsdtzNe6fO3Iin-182" target="ddYMeWlsdtzNe6fO3Iin-184" edge="1"><mxGeometry relative="1" as="geometry"/></mxCell><mxCell id="ddYMeWlsdtzNe6fO3Iin-182" value="did user select stop" style="rhombus;whiteSpace=wrap;html=1;" parent="1" vertex="1"><mxGeometry x="359" y="1160" width="99" height="90" as="geometry"/></mxCell><mxCell id="ddYMeWlsdtzNe6fO3Iin-188" style="edgeStyle=orthogonalEdgeStyle;rounded=0;orthogonalLoop=1;jettySize=auto;html=1;exitX=1;exitY=0.5;exitDx=0;exitDy=0;entryX=0.5;entryY=0;entryDx=0;entryDy=0;" parent="1" source="ddYMeWlsdtzNe6fO3Iin-182" target="ddYMeWlsdtzNe6fO3Iin-4" edge="1"><mxGeometry relative="1" as="geometry"><mxPoint x="420" y="190" as="targetPoint"/><Array as="points"><mxPoint x="530" y="1205"/><mxPoint x="530" y="1200"/><mxPoint x="700" y="1200"/><mxPoint x="700" y="190"/><mxPoint x="413" y="190"/></Array></mxGeometry></mxCell><mxCell id="ddYMeWlsdtzNe6fO3Iin-184" value="End" style="ellipse;whiteSpace=wrap;html=1;" parent="1" vertex="1"><mxGeometry x="349" y="1270" width="120" height="80" as="geometry"/></mxCell><mxCell id="ddYMeWlsdtzNe6fO3Iin-186" value="Yes" style="text;html=1;strokeColor=none;fillColor=none;align=center;verticalAlign=middle;whiteSpace=wrap;rounded=0;" parent="1" vertex="1"><mxGeometry x="413" y="1250" width="60" height="30" as="geometry"/></mxCell><mxCell id="2" value="No" style="text;html=1;strokeColor=none;fillColor=none;align=center;verticalAlign=middle;whiteSpace=wrap;rounded=0;" vertex="1" parent="1"><mxGeometry x="264" y="870" width="60" height="30" as="geometry"/></mxCell><mxCell id="3" value="Yes" style="text;html=1;strokeColor=none;fillColor=none;align=center;verticalAlign=middle;whiteSpace=wrap;rounded=0;" vertex="1" parent="1"><mxGeometry x="513" y="840" width="60" height="30" as="geometry"/></mxCell></root></mxGraphModel></diagram></mxfile>